# xmcd
#
# Track frame offsets:
#	150
#	17070
#	32277
#	55525
#	68157
#	87635
#	105985
#	132140
#	152045
#	159947
#	180762
#	195660
#	213660
#
# Disc length: 3074 seconds
# Revision: 0
# Processed by: cddbd v1.5.2PL0 Copyright (c) Steve Scherf et al.
# Submitted via: dBpowerAMP V12.0
#
DISCID=980c000d
DTITLE=Puffy AmiYumi - Jet CD
DYEAR=1998
DGENRE=JPop
TTITLE0=Jet Police
TTITLE1=That's The Way It Is
TTITLE2=CAKE IS LOVE
TTITLE3=Sign of Love
TTITLE4=Morning of Spring
TTITLE5=Lemon Kid
TTITLE6=Little Beauty
TTITLE7=Curiously
TTITLE8=Philosophy
TTITLE9=DE RIO
TTITLE10=Wild Girls on Circuit
TTITLE11=Nagisa Beach Fever
TTITLE12=MOTHER
EXTD=
EXTT0=
EXTT1=
EXTT2=
EXTT3=
EXTT4=
EXTT5=
EXTT6=
EXTT7=
EXTT8=
EXTT9=
EXTT10=
EXTT11=
EXTT12=
PLAYORDER=
